<svg version="1.1" id="Layer_1" xmlns="http://www.w3.org/2000/svg" xmlns:xlink="http://www.w3.org/1999/xlink" x="0px" y="0px" viewBox="0 0 255 218" xml:space="preserve">
<style type="text/css">
	.bg {
		fill: #000;
	}
</style>
<g class="bg">
	<path d="M29.8,163.1h1c0.9,0,1.3-0.7,1.3-2V129h-2.3V163.1z"/>
	<path d="M31.8,198.1c0.2-0.5,0.3-1.1,0.3-1.7v-14.5h-2.3v16.9h1C31.3,198.8,31.6,198.6,31.8,198.1z"/>
	<path d="M49.2,52.7h1c0.9,0,1.3-0.7,1.3-2v-31h-2.3V52.7z"/>
	<path d="M51.2,87.4c0.2-0.5,0.3-1.1,0.3-1.7V71.4h-2.3v16.7h1C50.7,88.1,51,87.9,51.2,87.4z"/>
	<rect x="94" y="196.4" width="2.3" height="21.6"/>
	<path d="M224,198.7c0.3,0,0.5-0.2,0.7-0.6c0.2-0.4,0.3-0.9,0.3-1.4v-67.5h-2.3v69.5H224z"/>
	<path d="M204.1,21.9c-0.4,0.5-0.6,1.1-0.6,1.8v63.9h2.3V43.8V23.3H255v-2.2h-49.2C205,21.1,204.5,21.4,204.1,21.9z"/>
	<path d="M252.4,207.7c-1.8,3.2-4.3,5.7-7.5,7.5c-3.2,1.8-6.8,2.7-10.9,2.7h-41.1V110H255v-2H154.3V21.2
		c0-6.3,1.9-11.4,5.6-15.3c3.7-3.9,9-5.8,15.8-5.8H255V0H152.1v108h-49.2V0h-2.1v44.2c0,3.9-0.9,7.4-2.7,10.5
		c-1.3,2.2-2.8,4-4.7,5.5h7.4v26.6c0,6.3-1.9,11.4-5.6,15.3c-3.7,3.9-9.1,5.8-16,5.8H0v0.1v2h62.1v45c0,3.9-0.9,7.4-2.7,10.5
		c-1.1,1.9-2.4,3.5-4,4.9H62v26.5c0,6.3-1.9,11.4-5.6,15.3c-3.7,3.9-9.1,5.8-16,5.8h23.8V110h62v108h2.4V110h62v108H255v-18.8
		C254.7,202.3,253.9,205.1,252.4,207.7z"/>
	<rect x="158.4" y="129.2" width="2.3" height="88.8"/>
	<rect x="94" y="129.2" width="2.3" height="47.9"/>
</g>
</svg>
