<?xml version="1.0" encoding="utf-8"?>
<!-- Generator: Adobe Illustrator 26.3.1, SVG Export Plug-In . SVG Version: 6.00 Build 0)  -->
<svg version="1.1" id="Layer_1" xmlns="http://www.w3.org/2000/svg" xmlns:xlink="http://www.w3.org/1999/xlink" x="0px" y="0px"
	 viewBox="0 0 255 218" style="enable-background:new 0 0 255 218;" xml:space="preserve">
<style type="text/css">
	.st0{fill:#1D1D1B;}
</style>
<rect x="254" class="st0" width="2" height="218"/>
<rect x="-1" class="st0" width="2" height="218"/>
<rect x="-1" y="-1" class="st0" width="257" height="2"/>
<rect x="-1" y="217" class="st0" width="257" height="5"/>
<g>
	<path class="st0" d="M30.6,162.6h1c0.9,0,1.3-0.7,1.3-2v-31.8h-2.3V162.6z"/>
	<path class="st0" d="M32.6,197.3c0.2-0.5,0.3-1.1,0.3-1.7v-14.4h-2.3V198h1C32.1,198,32.4,197.8,32.6,197.3z"/>
	<path class="st0" d="M49.8,53.2h1c0.9,0,1.3-0.7,1.3-2V20.5h-2.3V53.2z"/>
	<path class="st0" d="M51.8,87.6c0.2-0.5,0.3-1.1,0.3-1.7V71.7h-2.3v16.5h1C51.3,88.3,51.6,88.1,51.8,87.6z"/>
	<rect x="94.3" y="195.6" class="st0" width="2.3" height="21.4"/>
	<path class="st0" d="M223.2,197.9c0.3,0,0.5-0.2,0.7-0.6c0.2-0.4,0.3-0.9,0.3-1.4V129H222v68.9H223.2z"/>
	<path class="st0" d="M203.5,22.7c-0.4,0.5-0.6,1.1-0.6,1.8v63.3h2.3V44.4V24.1H254v-2.2h-48.8C204.4,21.9,203.9,22.2,203.5,22.7z"
		/>
	<path class="st0" d="M251.4,206.8c-1.8,3.2-4.3,5.6-7.4,7.4c-3.2,1.8-6.7,2.7-10.8,2.7h-40.8V110H254v-2h-99.9V22
		c0-6.2,1.9-11.3,5.6-15.2c3.7-3.9,8.9-5.7,15.7-5.7H254V1H151.9v107h-48.8V1H101v43.8c0,3.9-0.9,7.3-2.7,10.4
		c-1.2,2.1-2.8,3.9-4.7,5.4h7.4V87c0,6.2-1.9,11.3-5.6,15.2c-3.7,3.9-9,5.7-15.9,5.7H1v0.1v2h61.6v44.6c0,3.9-0.9,7.3-2.7,10.4
		c-1.1,1.9-2.4,3.5-4,4.9h6.5v26.3c0,6.2-1.9,11.3-5.6,15.2c-3.7,3.9-9,5.7-15.9,5.7h23.6V110h61.5v107h2.4V110h61.5v107H254v-18.6
		C253.7,201.4,252.9,204.2,251.4,206.8z"/>
	<rect x="158.2" y="129" class="st0" width="2.3" height="88"/>
	<rect x="94.3" y="129" class="st0" width="2.3" height="47.5"/>
</g>
</svg>
