<svg version="1.1" xmlns="http://www.w3.org/2000/svg" xmlns:xlink="http://www.w3.org/1999/xlink" x="0px" y="0px" viewBox="0 0 32 32" xml:space="preserve">
<style type="text/css">
	.top { fill: #ffc90c; }
	.bottom { fill: #934562; }
	@media (prefers-color-scheme: dark) {
		/* .top { fill: #ffffff; } */
	}
</style>
<path class="top" d="M19.35555,15.54763V4.65935c0-0.79028,0.23834-1.43003,0.70247-1.91925
	c0.46413-0.48922,1.12897-0.72756,1.98197-0.72756H32v2.63426h-6.18424c-0.10035,0-0.16307,0.03763-0.21325,0.10035
	c-0.05017,0.06272-0.07527,0.13798-0.07527,0.22579v8.01568h0.28852V7.49432V4.92278H32v10.62485H19.35555z"/>
<rect x="12.90788" y="2" class="top" width="6.1717" height="13.54763"/>
<path class="top" d="M12.30579,8.86163c0.22577-0.38892,0.33868-0.82794,0.33868-1.31714V2H0v13.5351h9.93494
	c0.86554,0,1.54291-0.23834,2.00702-0.7276c0.46417-0.4892,0.70251-1.12897,0.70251-1.91925V9.55151H11.6792
	C11.92694,9.35858,12.14423,9.13983,12.30579,8.86163z M6.46021,4.47119v3.88867c0,0.16302-0.05017,0.25085-0.16309,0.25085H6.17169
	V4.47119H6.46021z M6.46021,12.75031c0,0.07526-0.01251,0.15051-0.0376,0.2132c-0.02515,0.06274-0.06274,0.08783-0.12549,0.08783
	H6.17169v-2.09485h0.28851V12.75031z"/>
<path class="bottom" d="M28.22423,18.20698h-0.28852v8.71815h0.16307c0.03763,0,0.06272-0.02509,0.08781-0.07527
	s0.03763-0.1129,0.03763-0.17562V18.20698z M24.19757,29.34614V15.79851H32v10.93846c0,0.47668-0.1129,0.91572-0.33869,1.31713
	c-0.22579,0.40141-0.5394,0.71501-0.94081,0.94081c-0.40141,0.22579-0.853,0.33869-1.36731,0.33869h-5.15562V29.34614z"/>
<polygon class="bottom" points="16.13171,15.79851 16.13171,29.34614 19.86985,29.34614 19.86985,18.20698 20.15837,18.20698 
	20.15837,29.34614 23.90906,29.34614 23.90906,15.79851 "/>
<path class="bottom" d="M11.79145,18.20698h0.28851v6.00863h-0.28851V18.20698z M8.05331,15.79851v13.54763h3.73814v-2.70953h0.28851
	v2.70953h3.75069V15.79851H8.05331z"/>
<path class="bottom" d="M7.45117,22.7605c0.22583-0.38892,0.33868-0.82794,0.33868-1.31714v-5.64484H0v13.54761h5.06781
	c0.86554,0,1.54291-0.23834,2.00708-0.72754c0.46411-0.48926,0.70245-1.12897,0.70245-1.91925v-3.32422H6.92517
	C7.12921,23.19843,7.3111,23.00177,7.45117,22.7605z M4.02667,18.18188v4.02667c0,0.16302-0.05017,0.25085-0.16309,0.25085H3.73816
	v-4.27753H4.02667z M4.02667,26.6366c0,0.07526-0.01257,0.15051-0.03766,0.21326s-0.06268,0.08783-0.12543,0.08783H3.73816v-2.12
	h0.28851V26.6366z"/>
</svg>
